<?xml version="1.0" encoding="UTF-8" standalone="no"?>
<!-- Created with Inkscape (http://www.inkscape.org/) -->

<svg
   width="2880"
   height="341.26807"
   viewBox="0 0 2880 341.26807"
   version="1.1"
   id="svg1"
   xml:space="preserve"
   inkscape:export-filename="bitmap.png"
   inkscape:export-xdpi="96"
   inkscape:export-ydpi="96"
   xmlns:inkscape="http://www.inkscape.org/namespaces/inkscape"
   xmlns:sodipodi="http://sodipodi.sourceforge.net/DTD/sodipodi-0.dtd"
   xmlns:xlink="http://www.w3.org/1999/xlink"
   xmlns="http://www.w3.org/2000/svg"
   xmlns:svg="http://www.w3.org/2000/svg"><sodipodi:namedview
     id="namedview1"
     pagecolor="#ffffff"
     bordercolor="#000000"
     borderopacity="0.25"
     inkscape:showpageshadow="2"
     inkscape:pageopacity="0.0"
     inkscape:pagecheckerboard="0"
     inkscape:deskcolor="#d1d1d1"
     inkscape:document-units="px" /><defs
     id="defs1"><linearGradient
       id="linearGradient8"
       inkscape:collect="always"><stop
         style="stop-color:#ffa265;stop-opacity:1;"
         offset="0"
         id="stop8" /><stop
         style="stop-color:#ffc196;stop-opacity:1;"
         offset="1"
         id="stop9" /></linearGradient><linearGradient
       id="linearGradient6"
       inkscape:collect="always"><stop
         style="stop-color:#f95400;stop-opacity:1;"
         offset="0"
         id="stop6" /><stop
         style="stop-color:#ff9a53;stop-opacity:1;"
         offset="1"
         id="stop7" /></linearGradient><linearGradient
       id="linearGradient4"
       inkscape:collect="always"><stop
         style="stop-color:#f06000;stop-opacity:1;"
         offset="0"
         id="stop4" /><stop
         style="stop-color:#ff9c57;stop-opacity:1;"
         offset="1"
         id="stop5" /></linearGradient><linearGradient
       inkscape:collect="always"
       xlink:href="#linearGradient4"
       id="linearGradient5"
       x1="-404.43872"
       y1="931.74829"
       x2="2475.5613"
       y2="931.74829"
       gradientUnits="userSpaceOnUse" /><linearGradient
       inkscape:collect="always"
       xlink:href="#linearGradient6"
       id="linearGradient7"
       x1="-406.43872"
       y1="930.7442"
       x2="2477.5613"
       y2="930.7442"
       gradientUnits="userSpaceOnUse" /><linearGradient
       inkscape:collect="always"
       xlink:href="#linearGradient8"
       id="linearGradient9"
       x1="-404.43872"
       y1="909.36597"
       x2="2475.5613"
       y2="909.36597"
       gradientUnits="userSpaceOnUse" /></defs><g
     inkscape:label="Layer 1"
     inkscape:groupmode="layer"
     id="layer1"
     transform="translate(404.43872,-738.73193)"><path
       style="fill:url(#linearGradient9);stroke:none;stroke-width:4;stroke-linecap:round;stroke-linejoin:round;stroke-dasharray:none"
       d="M -404.43872,781.48834 V 1080 H 2475.5613 V 802.32441 c -178.9383,-47.72186 -245.7522,-47.44517 -393.5198,-45.98475 -147.7675,1.46042 -212.0637,34.69118 -369.219,62.1889 -157.1554,27.49772 -119.5663,10.25896 -255.8124,33.79873 -136.246,23.53977 -246.5609,-14.68466 -389.288,-70.83895 -142.72705,-56.15429 -227.1186,-41.24526 -324.95889,-22.95893 -97.84029,18.28633 -233.74877,62.06932 -338.217,66.15829 -104.46823,4.08897 -386.602724,-101.0154 -538.12096,-84.11424 -151.51824,16.90116 -270.86397,40.91488 -270.86397,40.91488 z"
       id="path3"
       sodipodi:nodetypes="cccczzzzzzzc" /><path
       style="opacity:0.681909;fill:url(#linearGradient7);fill-opacity:1;stroke:none;stroke-width:4;stroke-linecap:round;stroke-linejoin:round;stroke-dasharray:none"
       d="M -404.43872,781.48834 V 1080 H 2475.5613 V 784.80634 c -173.5707,11.12538 -264.2559,66.11692 -359.8452,55.36852 -95.5892,-10.74841 -151.0464,-37.76982 -350.955,-43.64785 -199.9085,-5.87804 -275.0214,131.71864 -405.153,81.69258 -130.1317,-50.02605 -182.2061,-68.06125 -337.3203,-78.38328 -155.11415,-10.32203 -266.86503,61.7103 -443.33342,21.68117 -176.46839,-40.02914 -334.03597,-11.41721 -411.67571,-1.90583 -77.639747,9.51137 -306.38958,31.26885 -411.65477,-0.64514 -105.26519,-31.91399 -160.06262,-37.47817 -160.06262,-37.47817 z"
       id="path2"
       sodipodi:nodetypes="cccczzzzzzzc" /><path
       style="opacity:1;fill:url(#linearGradient5);stroke:none;stroke-width:4;stroke-linecap:round;stroke-linejoin:round;stroke-dasharray:none"
       d="M -404.43872,857.80645 V 1080 H 2475.5613 V 829.47731 C 2296.623,781.75545 2021.7828,759.25874 1920,821.59421 c -101.7828,62.33547 -193.9458,55.08616 -320.6066,20.1457 -126.6608,-34.94046 -247.7698,-44.79749 -359.3208,-8.73322 -111.551,36.06427 -199.548,61.38391 -342.27509,5.22962 -142.72706,-56.15429 -293.24906,-34.49048 -378.3888,4.3795 -85.13974,38.86998 -289.64067,38.39993 -352.2314,-7.41731 -62.59073,-45.81724 -293.28177,-55.54381 -411.55341,-16.23199 -118.27164,39.31182 -160.06262,38.83994 -160.06262,38.83994 z"
       id="path1"
       sodipodi:nodetypes="cccczzzzzzzc" /></g></svg>
