<?xml version="1.0" encoding="UTF-8"?>
<svg xmlns="http://www.w3.org/2000/svg" xmlns:xlink="http://www.w3.org/1999/xlink" width="716px" height="279px" viewBox="0 0 715 279" version="1.1">
<g id="surface1">
<path style=" stroke:none;fill-rule:nonzero;fill:rgb(94.901961%,43.921569%,14.117647%);fill-opacity:1;" d="M 227.148438 2.09375 C 230.988281 0.710938 235.046875 0.0390625 239.128906 0.105469 L 283.074219 0.105469 C 272.839844 44.714844 262.558594 89.257812 252.230469 133.734375 C 249.121094 147.582031 236.214844 158.582031 221.984375 158.976562 L 175.523438 158.976562 C 185.320312 116.398438 195.136719 73.800781 204.976562 31.175781 C 205.769531 28.128906 206.234375 24.949219 207.292969 22.035156 C 210.609375 12.757812 217.890625 5.445312 227.148438 2.09375 Z M 211.394531 51.914062 C 207.027344 70.332031 202.859375 88.75 198.621094 107.167969 C 204.117188 107.433594 209.277344 104.1875 212.058594 99.550781 C 214.835938 94.914062 214.640625 90.339844 216.027344 85.703125 C 225.492188 85.703125 234.957031 85.769531 244.421875 85.703125 C 248.121094 85.695312 251.609375 83.984375 253.886719 81.066406 C 257.660156 76.625 257.859375 70.53125 259.378906 65.164062 C 260.371094 61.785156 260.242188 57.746094 257.726562 55.027344 C 255.210938 52.3125 252.230469 51.847656 249.121094 51.914062 C 236.546875 51.914062 223.972656 51.980469 211.394531 51.914062 Z M 211.394531 51.914062 "/>
<path style=" stroke:none;fill-rule:nonzero;fill:rgb(94.901961%,43.921569%,14.117647%);fill-opacity:1;" d="M 220.859375 64.4375 C 229.664062 64.304688 238.398438 64.4375 247.136719 64.371094 C 246.40625 67.351562 245.746094 70.332031 245.019531 73.3125 L 218.875 73.3125 C 219.535156 70.332031 220.265625 67.417969 220.859375 64.4375 Z M 220.859375 64.4375 "/>
<path style=" stroke:none;fill-rule:nonzero;fill:rgb(94.901961%,43.921569%,14.117647%);fill-opacity:1;" d="M 518.496094 231.988281 C 519.753906 225.03125 525.644531 219.335938 532.460938 217.742188 C 539.277344 216.152344 547.75 217.214844 552.117188 223.375 C 552.050781 221.652344 551.984375 219.929688 551.851562 218.273438 L 565.089844 218.273438 L 565.089844 237.222656 L 551.917969 237.222656 C 549.667969 233.3125 546.492188 229.007812 541.59375 228.808594 C 538.285156 228.34375 534.183594 230.996094 535.042969 234.703125 C 535.902344 238.414062 539.941406 238.679688 542.851562 239.410156 C 550.464844 240.734375 558.800781 241.992188 564.496094 247.691406 C 572.238281 256.238281 569.0625 272.003906 558.539062 276.839844 C 549.667969 280.949219 538.085938 279.292969 531.269531 272.003906 L 531.667969 277.835938 L 518.5625 277.835938 C 518.695312 271.078125 518.496094 264.320312 518.695312 257.5625 C 523.261719 257.695312 527.828125 257.628906 532.394531 257.628906 C 534.976562 260.875 537.625 264.386719 541.726562 265.777344 C 544.640625 266.769531 548.410156 266.769531 550.660156 264.386719 C 551.570312 263.429688 552.011719 262.117188 551.875 260.804688 C 551.734375 259.492188 551.023438 258.304688 549.933594 257.5625 C 547.085938 255.707031 543.578125 255.640625 540.335938 255.042969 C 534.183594 254.050781 527.628906 252.527344 522.929688 248.152344 C 518.230469 243.78125 517.371094 237.621094 518.496094 231.988281 Z M 518.496094 231.988281 "/>
<path style=" stroke:none;fill-rule:nonzero;fill:rgb(94.901961%,43.921569%,14.117647%);fill-opacity:1;" d="M 0.0664062 218.207031 L 52.351562 218.207031 C 52.351562 225.429688 52.285156 232.652344 52.351562 239.871094 L 41.894531 239.871094 C 40.703125 236.691406 39.511719 233.511719 38.453125 230.332031 C 32.894531 230.199219 27.269531 230.265625 21.707031 230.265625 C 21.707031 233.378906 21.707031 236.492188 21.644531 239.605469 C 25.347656 239.804688 28.988281 239.671875 32.628906 239.738281 L 32.628906 252.992188 C 28.988281 252.925781 25.347656 252.992188 21.707031 252.992188 C 21.707031 257.164062 21.773438 261.339844 21.644531 265.511719 L 29.519531 265.511719 L 29.519531 277.703125 L 0.0664062 277.703125 C 0.0664062 273.660156 0 269.621094 0.0664062 265.644531 L 6.023438 265.644531 C 5.957031 253.917969 6.089844 242.125 5.890625 230.332031 C 3.972656 230.398438 1.984375 230.398438 0 230.332031 C 0.0664062 226.289062 -0.0664062 222.25 0.0664062 218.207031 Z M 0.0664062 218.207031 "/>
<path style=" stroke:none;fill-rule:nonzero;fill:rgb(94.901961%,43.921569%,14.117647%);fill-opacity:1;" d="M 55.53125 218.207031 C 65.988281 218.339844 76.445312 218.207031 86.902344 218.273438 C 92.0625 218.339844 97.492188 219.929688 101.132812 223.707031 C 105.832031 228.410156 106.957031 235.765625 105.566406 242.058594 C 104.554688 247.125 101.21875 251.417969 96.5625 253.652344 C 90.542969 256.765625 83.527344 255.90625 76.972656 255.972656 L 76.972656 265.644531 L 83.195312 265.644531 C 83.328125 269.6875 83.195312 273.726562 83.261719 277.769531 C 73.996094 277.769531 64.664062 277.835938 55.398438 277.703125 C 55.53125 273.660156 55.398438 269.6875 55.53125 265.644531 L 61.617188 265.644531 C 61.550781 253.851562 61.617188 242.125 61.550781 230.332031 L 55.464844 230.332031 C 55.464844 226.289062 55.398438 222.25 55.53125 218.207031 Z M 76.972656 230.332031 L 76.972656 244.773438 C 80.480469 244.707031 84.320312 245.105469 87.5625 243.25 C 90.804688 241.394531 91.402344 233.378906 86.902344 231.324219 C 83.789062 229.867188 80.28125 230.398438 76.972656 230.332031 Z M 76.972656 230.332031 "/>
<path style=" stroke:none;fill-rule:nonzero;fill:rgb(94.901961%,43.921569%,14.117647%);fill-opacity:1;" d="M 108.941406 218.273438 L 159.042969 218.273438 L 159.042969 239.542969 L 149.378906 239.542969 C 148.320312 236.492188 147.394531 233.378906 146.335938 230.265625 C 144.746094 230.332031 143.226562 230.265625 141.703125 230.265625 C 141.636719 242.125 141.703125 253.917969 141.703125 265.777344 L 147.660156 265.777344 C 147.59375 269.820312 147.660156 273.792969 147.660156 277.835938 L 120.125 277.835938 C 120.191406 273.792969 120.125 269.753906 120.191406 265.777344 L 126.082031 265.777344 C 126.148438 253.917969 126.148438 242.125 126.082031 230.332031 L 121.515625 230.332031 C 120.589844 233.445312 119.53125 236.492188 118.472656 239.542969 C 115.292969 239.605469 112.117188 239.605469 108.875 239.542969 C 108.941406 232.386719 108.875 225.296875 108.941406 218.273438 Z M 108.941406 218.273438 "/>
<path style=" stroke:none;fill-rule:nonzero;fill:rgb(94.901961%,43.921569%,14.117647%);fill-opacity:1;" d="M 183.53125 218.207031 C 192.796875 218.296875 202.0625 218.296875 211.328125 218.207031 C 211.328125 222.25 211.394531 226.355469 211.261719 230.398438 L 205.042969 230.398438 C 205.109375 238.679688 204.976562 246.960938 205.109375 255.175781 C 205.042969 258.488281 206.433594 262.132812 209.675781 263.523438 C 212.917969 264.914062 218.34375 264.914062 221.324219 261.933594 C 223.109375 260.210938 223.640625 257.628906 223.574219 255.242188 L 223.574219 230.332031 L 217.484375 230.332031 C 217.417969 226.289062 217.484375 222.25 217.484375 218.273438 L 245.085938 218.273438 C 245.085938 222.316406 245.085938 226.355469 245.019531 230.398438 L 239.261719 230.398438 C 239.324219 239.34375 239.324219 248.285156 239.324219 257.230469 C 239.261719 262.53125 237.671875 268.03125 233.898438 271.871094 C 230.125 275.714844 223.507812 278.429688 217.550781 278.828125 C 211.59375 279.226562 203.386719 278.363281 197.695312 274.257812 C 192.003906 270.148438 189.554688 264.1875 189.621094 257.894531 C 189.6875 248.75 189.621094 239.605469 189.6875 230.464844 L 183.53125 230.464844 Z M 183.53125 218.207031 "/>
<path style=" stroke:none;fill-rule:nonzero;fill:rgb(94.901961%,43.921569%,14.117647%);fill-opacity:1;" d="M 247.597656 218.207031 C 254.679688 218.207031 261.761719 218.273438 268.84375 218.207031 C 275.398438 229.007812 281.882812 239.871094 288.5 250.605469 C 288.171875 243.847656 288.238281 237.089844 287.90625 230.332031 L 281.617188 230.332031 C 281.683594 226.289062 281.617188 222.25 281.683594 218.273438 L 308.953125 218.273438 L 308.953125 230.398438 L 302.996094 230.398438 C 302.996094 246.167969 302.929688 261.933594 303.0625 277.703125 C 298.761719 277.835938 294.457031 277.703125 290.15625 277.769531 C 282.808594 265.976562 275.792969 254.050781 268.382812 242.324219 C 268.644531 250.074219 268.644531 257.894531 268.777344 265.710938 L 275.066406 265.710938 L 275.066406 277.703125 L 247.597656 277.703125 C 247.597656 273.660156 247.53125 269.621094 247.597656 265.644531 L 253.6875 265.644531 L 253.6875 230.332031 L 247.53125 230.332031 C 247.597656 226.289062 247.53125 222.25 247.597656 218.207031 Z M 247.597656 218.207031 "/>
<path style=" stroke:none;fill-rule:nonzero;fill:rgb(94.901961%,43.921569%,14.117647%);fill-opacity:1;" d="M 311.535156 218.339844 C 320.800781 218.140625 330.132812 218.273438 339.398438 218.273438 L 339.398438 230.332031 L 333.242188 230.332031 C 333.308594 242.058594 333.242188 253.785156 333.308594 265.578125 L 339.332031 265.578125 C 339.464844 269.621094 339.398438 273.660156 339.398438 277.703125 C 330.132812 277.636719 320.800781 277.769531 311.535156 277.636719 C 311.667969 273.59375 311.535156 269.621094 311.667969 265.578125 L 317.753906 265.578125 C 317.691406 253.785156 317.753906 242.058594 317.691406 230.265625 L 311.601562 230.265625 C 311.535156 226.355469 311.667969 222.316406 311.535156 218.339844 Z M 311.535156 218.339844 "/>
<path style=" stroke:none;fill-rule:nonzero;fill:rgb(94.901961%,43.921569%,14.117647%);fill-opacity:1;" d="M 341.914062 218.273438 L 366.863281 218.273438 C 366.863281 222.316406 366.929688 226.355469 366.800781 230.398438 L 361.503906 230.398438 C 364.285156 239.804688 366.929688 249.28125 369.777344 258.6875 C 372.753906 249.28125 375.335938 239.804688 378.183594 230.398438 L 372.886719 230.398438 C 372.753906 226.355469 372.820312 222.316406 372.820312 218.273438 C 381.09375 218.273438 389.367188 218.339844 397.640625 218.273438 L 397.640625 230.398438 L 393.007812 230.398438 C 387.78125 246.167969 382.484375 261.933594 377.324219 277.769531 L 362.363281 277.769531 C 357.136719 261.933594 351.773438 246.167969 346.546875 230.398438 L 341.980469 230.398438 C 341.78125 226.355469 341.914062 222.316406 341.914062 218.273438 Z M 341.914062 218.273438 "/>
<path style=" stroke:none;fill-rule:nonzero;fill:rgb(94.901961%,43.921569%,14.117647%);fill-opacity:1;" d="M 400.15625 218.273438 L 453.4375 218.273438 C 453.4375 225.496094 453.371094 232.71875 453.4375 239.9375 L 443.042969 239.9375 C 441.851562 236.757812 440.59375 233.578125 439.535156 230.398438 C 433.578125 230.265625 427.691406 230.332031 421.800781 230.332031 L 421.800781 239.804688 C 425.703125 239.804688 429.675781 239.738281 433.578125 239.804688 C 433.515625 244.246094 433.578125 248.617188 433.578125 253.054688 C 429.609375 253.054688 425.703125 252.992188 421.800781 253.054688 L 421.800781 265.644531 L 439.46875 265.644531 C 440.59375 261.867188 441.851562 258.089844 442.976562 254.25 L 453.4375 254.25 C 453.371094 262.132812 453.4375 269.949219 453.4375 277.769531 L 400.089844 277.769531 C 400.15625 273.726562 400.15625 269.6875 400.089844 265.710938 C 402.207031 265.710938 404.261719 265.710938 406.3125 265.578125 C 406.179688 253.851562 406.246094 242.125 406.246094 230.398438 L 400.089844 230.398438 C 400.15625 226.222656 400.089844 222.25 400.15625 218.273438 Z M 400.15625 218.273438 "/>
<path style=" stroke:none;fill-rule:nonzero;fill:rgb(94.901961%,43.921569%,14.117647%);fill-opacity:1;" d="M 459.0625 218.273438 L 493.941406 218.273438 C 497.449219 218.140625 501.15625 218.539062 504.265625 220.460938 C 510.753906 224.171875 512.9375 233.046875 510.222656 239.738281 C 508.699219 243.382812 505.257812 245.503906 501.816406 247.027344 C 504.597656 247.890625 507.972656 249.28125 508.5 252.59375 C 509.164062 256.898438 508.699219 261.339844 508.832031 265.644531 L 514.0625 265.644531 C 514.195312 269.6875 514.0625 273.726562 514.128906 277.703125 C 507.179688 277.835938 500.230469 277.769531 493.277344 277.769531 C 493.214844 272.003906 493.410156 266.242188 493.214844 260.476562 C 493.082031 257.960938 492.816406 254.910156 490.367188 253.585938 C 487.917969 252.261719 483.882812 252.726562 480.703125 252.59375 L 480.703125 265.710938 L 485.335938 265.710938 L 485.335938 277.703125 L 458.996094 277.703125 C 459.0625 273.660156 459.0625 269.6875 458.996094 265.644531 L 464.953125 265.644531 C 465.085938 253.851562 464.953125 242.125 465.019531 230.398438 L 458.996094 230.398438 C 459.0625 226.289062 458.996094 222.25 459.0625 218.273438 Z M 480.703125 230.332031 L 480.703125 242.589844 C 484.34375 242.390625 488.316406 243.183594 491.757812 241.660156 C 495.199219 240.136719 495.792969 232.785156 491.558594 231.128906 C 487.324219 229.472656 484.277344 230.53125 480.703125 230.332031 Z M 480.703125 230.332031 "/>
<path style=" stroke:none;fill-rule:nonzero;fill:rgb(94.901961%,43.921569%,14.117647%);fill-opacity:1;" d="M 573.097656 218.207031 L 600.832031 218.207031 L 600.832031 230.265625 L 594.808594 230.265625 C 594.609375 242.058594 594.742188 253.851562 594.742188 265.644531 L 600.832031 265.644531 C 600.898438 269.6875 600.765625 273.660156 600.898438 277.703125 C 591.5625 277.835938 582.296875 277.769531 573.03125 277.703125 C 573.097656 273.726562 572.898438 269.6875 573.097656 265.644531 L 579.1875 265.644531 C 579.121094 253.851562 579.1875 242.125 579.121094 230.332031 L 573.03125 230.332031 C 573.03125 226.289062 572.964844 222.25 573.097656 218.207031 Z M 573.097656 218.207031 "/>
<path style=" stroke:none;fill-rule:nonzero;fill:rgb(94.901961%,43.921569%,14.117647%);fill-opacity:1;" d="M 604.007812 218.273438 L 654.109375 218.273438 L 654.109375 239.542969 L 644.378906 239.542969 C 643.453125 236.425781 642.394531 233.378906 641.46875 230.265625 L 636.769531 230.265625 C 636.769531 242.058594 636.703125 253.851562 636.769531 265.710938 L 642.859375 265.710938 L 642.859375 277.703125 L 615.191406 277.703125 C 615.257812 273.660156 615.191406 269.621094 615.257812 265.644531 L 621.148438 265.644531 C 621.214844 253.785156 621.214844 241.992188 621.148438 230.132812 L 616.582031 230.132812 L 613.605469 239.34375 C 610.425781 239.410156 607.183594 239.410156 603.941406 239.34375 C 604.007812 232.386719 603.941406 225.296875 604.007812 218.273438 Z M 604.007812 218.273438 "/>
<path style=" stroke:none;fill-rule:nonzero;fill:rgb(94.901961%,43.921569%,14.117647%);fill-opacity:1;" d="M 655.960938 218.207031 C 664.632812 218.273438 673.371094 218.273438 682.039062 218.207031 C 682.105469 222.25 682.039062 226.289062 682.105469 230.265625 L 677.472656 230.265625 C 680.1875 234.835938 682.964844 239.277344 685.679688 243.847656 C 688.59375 239.410156 691.238281 234.835938 693.886719 230.265625 L 689.519531 230.265625 C 689.519531 226.222656 689.453125 222.183594 689.585938 218.140625 C 698.054688 218.273438 706.527344 218.140625 715 218.140625 C 715 222.183594 714.933594 226.222656 715.066406 230.199219 L 710.433594 230.199219 C 704.742188 238.746094 698.785156 247.09375 693.226562 255.640625 C 693.027344 258.953125 693.226562 262.199219 693.160156 265.511719 L 699.378906 265.511719 C 699.511719 269.554688 699.378906 273.59375 699.445312 277.570312 C 690.179688 277.636719 680.847656 277.703125 671.582031 277.570312 C 671.714844 273.527344 671.582031 269.554688 671.714844 265.511719 L 677.671875 265.511719 C 677.472656 262.265625 677.738281 258.953125 677.539062 255.773438 C 672.046875 247.160156 666.15625 238.878906 660.660156 230.332031 L 655.898438 230.199219 C 655.960938 226.289062 655.898438 222.25 655.960938 218.207031 Z M 655.960938 218.207031 "/>
<path style=" stroke:none;fill-rule:nonzero;fill:rgb(0%,40%,69.803922%);fill-opacity:1;" d="M 120.523438 50.457031 C 123.765625 36.476562 136.605469 25.015625 151.101562 24.617188 L 197.363281 24.617188 C 190.703125 53.769531 183.996094 82.875 177.246094 111.9375 C 173.472656 124.660156 161.09375 134.464844 147.726562 134.597656 L 101.066406 134.597656 C 107.550781 106.574219 113.972656 78.480469 120.523438 50.457031 Z M 138.394531 53.039062 C 133.960938 55.027344 130.121094 58.871094 129.128906 63.707031 C 125.816406 78.214844 122.441406 92.660156 119.199219 107.167969 C 126.082031 107.433594 132.769531 102.199219 134.289062 95.441406 C 135.019531 92.195312 135.746094 88.949219 136.539062 85.703125 C 143.601562 85.792969 150.683594 85.792969 157.785156 85.703125 C 164.339844 85.304688 170.164062 79.9375 171.421875 73.511719 L 139.386719 73.511719 C 140.046875 70.53125 140.777344 67.484375 141.4375 64.503906 C 150.636719 64.371094 159.835938 64.503906 169.039062 64.4375 C 176.054688 64.4375 182.273438 58.804688 183.597656 52.046875 L 149.117188 52.046875 C 145.542969 52.046875 141.769531 51.648438 138.394531 53.039062 Z M 138.394531 53.039062 "/>
<path style=" stroke:none;fill-rule:nonzero;fill:rgb(0%,40%,69.803922%);fill-opacity:1;" d="M 429.875 60.925781 C 432.058594 60.859375 434.175781 60.859375 436.359375 60.925781 L 436.359375 105.511719 C 431.285156 107.675781 425.65625 108.1875 420.277344 106.96875 C 415.046875 105.644531 411.210938 100.875 410.480469 95.640625 C 409.753906 90.40625 410.28125 82.523438 415.113281 78.214844 C 419.945312 73.910156 424.976562 74.375 429.941406 75.632812 C 429.875 70.730469 429.941406 65.828125 429.875 60.925781 Z M 420.144531 81.925781 C 417.429688 84.3125 416.636719 88.15625 416.703125 91.597656 C 416.769531 95.042969 417.5625 98.753906 420.410156 100.875 C 423.253906 102.996094 426.828125 102.597656 429.941406 101.539062 C 429.875 94.648438 429.875 87.691406 429.941406 80.734375 C 426.761719 79.742188 422.792969 79.542969 420.144531 81.925781 Z M 420.144531 81.925781 "/>
<path style=" stroke:none;fill-rule:nonzero;fill:rgb(0%,40%,69.803922%);fill-opacity:1;" d="M 545.765625 62.648438 C 548.277344 61.257812 551.917969 63.375 551.457031 66.355469 C 550.992188 69.339844 546.824219 70.796875 544.707031 68.542969 C 543.890625 67.6875 543.53125 66.492188 543.738281 65.328125 C 543.949219 64.160156 544.699219 63.164062 545.765625 62.648438 Z M 545.765625 62.648438 "/>
<path style=" stroke:none;fill-rule:nonzero;fill:rgb(0%,40%,69.803922%);fill-opacity:1;" d="M 384.734375 64.371094 L 407.105469 64.371094 L 407.105469 70.199219 L 391.355469 70.199219 L 391.355469 82.390625 C 396.054688 82.390625 400.816406 82.457031 405.515625 82.390625 C 405.582031 84.246094 405.582031 86.101562 405.648438 88.023438 C 400.882812 88.15625 396.117188 88.023438 391.355469 88.089844 C 391.355469 92.460938 391.289062 96.765625 391.421875 101.207031 C 396.582031 101.074219 401.8125 101.207031 407.039062 101.074219 C 407.105469 103.0625 407.105469 104.984375 407.105469 106.902344 L 384.734375 106.902344 Z M 384.734375 64.371094 "/>
<path style=" stroke:none;fill-rule:nonzero;fill:rgb(0%,40%,69.803922%);fill-opacity:1;" d="M 527.695312 67.882812 C 529.878906 67.285156 531.996094 66.554688 534.183594 66.027344 C 534.117188 69.074219 534.183594 72.1875 534.117188 75.234375 L 540.46875 75.234375 C 540.402344 76.890625 540.46875 78.546875 540.46875 80.203125 L 534.183594 80.203125 C 534.246094 86.367188 534.050781 92.59375 534.246094 98.753906 C 534.644531 101.605469 538.21875 101.867188 540.46875 101.140625 C 540.425781 102.996094 540.425781 104.851562 540.46875 106.703125 C 537.226562 107.433594 533.453125 107.765625 530.675781 105.710938 C 527.894531 103.65625 527.695312 100.941406 527.695312 98.160156 L 527.695312 80.269531 L 523.394531 80.269531 L 523.394531 75.300781 L 527.628906 75.300781 C 527.695312 72.851562 527.695312 70.398438 527.695312 67.882812 Z M 527.695312 67.882812 "/>
<path style=" stroke:none;fill-rule:nonzero;fill:rgb(0%,40%,69.803922%);fill-opacity:1;" d="M 474.8125 79.011719 C 479.183594 73.710938 487.453125 73.378906 493.082031 76.757812 C 492.351562 78.347656 491.625 79.9375 490.960938 81.527344 C 488.515625 80.203125 485.601562 79.476562 482.953125 80.535156 C 480.308594 81.59375 478.054688 85.570312 477.792969 88.949219 C 477.527344 92.328125 477.925781 97.5625 481.167969 100.34375 C 484.410156 103.128906 487.984375 102.265625 490.898438 100.542969 L 493.082031 105.445312 C 488.644531 108.03125 482.753906 108.425781 478.1875 105.976562 C 473.621094 103.523438 471.703125 99.152344 471.105469 94.582031 C 470.511719 90.007812 471.105469 83.183594 474.8125 79.011719 Z M 474.8125 79.011719 "/>
<path style=" stroke:none;fill-rule:nonzero;fill:rgb(0%,40%,69.803922%);fill-opacity:1;" d="M 496.851562 76.824219 C 502.214844 74.574219 508.371094 73.777344 513.996094 75.5 C 517.769531 76.558594 520.152344 80.402344 520.085938 84.246094 L 520.085938 105.445312 C 515.121094 107.699219 509.429688 107.964844 504.066406 107.234375 C 500.625 106.769531 497.050781 105.046875 495.726562 101.667969 C 494.40625 98.292969 494.933594 92.660156 498.640625 90.207031 C 502.347656 87.757812 508.765625 86.960938 513.929688 86.695312 C 514.0625 84.3125 513.796875 81.265625 511.28125 80.203125 C 507.113281 78.546875 502.546875 79.804688 498.507812 81.398438 Z M 503.207031 93.453125 C 500.230469 95.507812 500.625 100.675781 504 102 C 507.375 103.328125 510.6875 102.863281 513.929688 102.066406 C 513.996094 98.421875 513.929688 94.78125 513.996094 91.136719 C 510.355469 91.46875 506.316406 91.335938 503.207031 93.453125 Z M 503.207031 93.453125 "/>
<path style=" stroke:none;fill-rule:nonzero;fill:rgb(0%,40%,69.803922%);fill-opacity:1;" d="M 564.363281 75.367188 C 567.722656 74.238281 571.371094 74.308594 574.6875 75.566406 C 579.253906 77.421875 582.035156 82.058594 582.761719 86.761719 C 583.488281 91.46875 583.09375 98.09375 579.785156 102.597656 C 575.085938 109.089844 564.097656 109.355469 559.066406 103.128906 C 555.230469 98.6875 554.832031 92.394531 555.558594 86.828125 C 556.289062 81.265625 559.398438 76.957031 564.363281 75.367188 Z M 566.347656 80.46875 C 562.640625 82.457031 561.847656 87.09375 561.847656 90.871094 C 561.847656 94.648438 562.507812 98.886719 565.753906 101.207031 C 568.996094 103.523438 571.972656 102.464844 573.960938 100.078125 C 575.945312 97.695312 576.40625 94.515625 576.539062 91.535156 C 576.671875 88.550781 576.144531 84.839844 574.15625 82.191406 C 572.171875 79.542969 568.929688 79.34375 566.347656 80.46875 Z M 566.347656 80.46875 "/>
<path style=" stroke:none;fill-rule:nonzero;fill:rgb(0%,40%,69.803922%);fill-opacity:1;" d="M 587.261719 76.824219 C 592.316406 74.878906 597.769531 74.195312 603.148438 74.835938 C 606.125 75.234375 609.300781 76.363281 611.023438 79.011719 C 612.742188 81.660156 612.742188 84.179688 612.742188 86.828125 C 612.742188 93.519531 612.808594 100.277344 612.742188 106.96875 C 610.492188 106.902344 608.308594 106.902344 606.125 106.96875 C 606.058594 99.816406 606.191406 92.726562 606.058594 85.570312 C 606.058594 83.648438 605.199219 81.527344 603.34375 80.734375 C 600.367188 79.34375 596.925781 79.9375 593.882812 80.800781 L 593.882812 106.96875 L 587.261719 106.96875 Z M 587.261719 76.824219 "/>
<path style=" stroke:none;fill-rule:nonzero;fill:rgb(0%,40%,69.803922%);fill-opacity:1;" d="M 441.785156 75.367188 L 448.273438 75.367188 C 448.339844 82.324219 448.207031 89.347656 448.339844 96.304688 C 448.273438 98.488281 449.265625 100.941406 451.515625 101.734375 C 453.765625 102.53125 457.339844 102.199219 460.1875 101.472656 L 460.1875 75.300781 L 466.539062 75.300781 C 466.738281 85.371094 466.539062 95.441406 466.671875 105.511719 C 462.371094 107.367188 457.605469 107.832031 452.972656 107.632812 C 449.53125 107.433594 445.824219 106.375 443.773438 103.457031 C 441.722656 100.542969 441.722656 97.828125 441.785156 94.914062 C 441.785156 88.351562 441.851562 81.859375 441.785156 75.367188 Z M 441.785156 75.367188 "/>
<path style=" stroke:none;fill-rule:nonzero;fill:rgb(0%,40%,69.803922%);fill-opacity:1;" d="M 544.242188 75.300781 L 550.859375 75.300781 L 550.859375 106.96875 L 544.242188 106.96875 Z M 544.242188 75.300781 "/>
<path style=" stroke:none;fill-rule:nonzero;fill:rgb(0%,40%,69.803922%);fill-opacity:1;" d="M 351.90625 115.78125 C 356.871094 114.390625 362.496094 117.636719 363.554688 122.738281 C 364.613281 127.839844 361.503906 133.472656 356.339844 134.398438 C 351.179688 135.324219 344.691406 131.085938 344.824219 125.320312 C 344.625 120.863281 347.585938 116.878906 351.90625 115.78125 Z M 350.78125 118.496094 C 346.148438 121.214844 346.148438 128.832031 350.714844 131.550781 C 353.230469 133.273438 356.40625 132.609375 358.855469 131.21875 C 358.101562 130.8125 357.304688 130.5 356.472656 130.289062 C 355.28125 128.765625 354.820312 126.316406 352.832031 125.652344 C 352.769531 127.242188 352.832031 128.898438 352.832031 130.488281 L 350.582031 130.355469 C 350.714844 126.78125 350.648438 123.136719 350.648438 119.492188 C 353.03125 119.691406 355.8125 118.960938 357.863281 120.417969 C 359.914062 121.875 358.59375 125.453125 356.078125 125.984375 C 357.136719 127.574219 358.261719 129.230469 359.1875 130.953125 C 361.039062 128.4375 362.167969 125.125 360.84375 122.074219 C 359.519531 119.027344 354.289062 116.179688 350.78125 118.496094 Z M 352.832031 121.082031 L 352.832031 124.195312 C 354.15625 123.996094 356.539062 124.59375 356.605469 122.605469 C 356.671875 120.617188 354.089844 121.347656 352.832031 121.082031 Z M 352.832031 121.082031 "/>
<path style=" stroke:none;fill-rule:nonzero;fill:rgb(5.098039%,69.019608%,29.411765%);fill-opacity:1;" d="M 293.332031 31.109375 C 298.847656 26.855469 305.628906 24.566406 312.59375 24.617188 L 357.402344 24.617188 C 351.046875 52.445312 344.628906 80.269531 338.140625 108.097656 C 336.351562 116.089844 331.777344 123.183594 325.234375 128.105469 C 319.703125 132.335938 312.933594 134.617188 305.976562 134.597656 L 261.167969 134.597656 C 267.519531 106.859375 273.917969 79.101562 280.359375 51.316406 C 282.214844 43.367188 286.714844 35.949219 293.332031 31.109375 Z M 293.929688 63.773438 C 297.898438 64.964844 302.203125 64.105469 306.304688 64.371094 C 302.996094 78.636719 299.710938 92.902344 296.445312 107.167969 C 303.527344 107.433594 310.277344 102 311.667969 95.109375 C 313.984375 84.839844 316.433594 74.640625 318.75 64.371094 L 339.199219 64.371094 C 339.398438 62.050781 339.730469 59.535156 338.738281 57.347656 C 337.304688 54.074219 334.03125 52.003906 330.464844 52.113281 L 288.632812 52.113281 C 287.441406 56.617188 289.296875 62.117188 293.929688 63.773438 Z M 293.929688 63.773438 "/>
</g>
</svg>
